
        <svg xmlns="http://www.w3.org/2000/svg" xmlns:xlink="http://www.w3.org/1999/xlink" version="1.1" width="3266.6666666666665" 
        height="1299.9147792220751" viewBox="0 0 3266.6666666666665 1299.9147792220751">
			<rect fill="#ffffff" width="3266.6666666666665" height="1299.9147792220751"/>
			<g transform="scale(13.333333333333334) translate(10, 10)">
				<defs id="SvgjsDefs1021"></defs><g id="SvgjsG1022" featureKey="v37d4h-0" transform="matrix(0.8870967741935484,0,0,0.8870967741935484,16.451612903225808,16.451612903225808)" fill="#2d4059"><g xmlns="http://www.w3.org/2000/svg"><g><path fill="none" stroke="#2d4059" stroke-width="2" stroke-linecap="round" stroke-linejoin="round" stroke-miterlimit="10" d="    M46.601368,27.1249962V38h-5.8535881V8.1249962C40.7477798,5.8468237,38.8676834,4,36.5484695,4h-0.7635231    c-2.3192139,0-4.1993103,1.8468237-4.1993103,4.1249962V28h-6.187006V17.1249962    C25.3986301,14.8468237,23.5185356,13,21.1993198,13h-0.0000095C18.8800964,13,17,14.8468237,17,17.1249962V28v0.8875122    C17,33.3679161,20.6975193,37,25.2586403,37h0.1399899h6.187006v29h9.1621437V47h5.8535881h0.1399918    C51.3024788,47,55,43.3679161,55,38.8875122V38V27.1249962C55,24.8468227,53.1199036,23,50.8006897,23h-0.0000076    C48.4814644,23,46.601368,24.8468227,46.601368,27.1249962z"></path></g><line fill="none" stroke="#2d4059" stroke-width="2" stroke-linecap="round" stroke-linejoin="round" stroke-miterlimit="10" x1="4" y1="66" x2="66" y2="66"></line></g></g><g id="SvgjsG1023" featureKey="UxBHKT-0" transform="matrix(3.076194827935137,0,0,3.076194827935137,93.33885564368454,7.110270426457134)" fill="#2d4059"><path d="M3.62 16.42 q0 -0.4 -0.11 -0.69 t-0.49 -0.75 q-0.42 -0.5 -0.94 -0.95 t-0.9 -0.91 q-0.4 -0.44 -0.52 -0.88 t-0.12 -1.16 l0 -1.28 q0 -1.28 0.56 -1.83 t1.64 -0.55 q1.26 0 1.73 0.56 t0.47 1.82 l0 2.02 l-1.26 0 l0 -2.02 q0 -0.46 -0.26 -0.73 t-0.64 -0.27 q-0.9 0 -0.9 1 l0 1.46 q0 0.44 0.11 0.69 t0.45 0.61 q0.4 0.44 0.9 0.84 t0.88 0.84 q0.46 0.54 0.62 1.05 t0.16 1.31 l0 1.34 q0 1.2 -0.57 1.72 t-1.73 0.52 q-2.16 0 -2.16 -2.3 l0 -2.02 l1.24 0 l0 1.98 q0 0.46 0.27 0.73 t0.67 0.27 q0.9 0 0.9 -1 l0 -1.42 z M6.340000000000001 6.039999999999999 l0 -2.5 l1.38 0 l0 2.5 l-1.38 0 z M6.340000000000001 20 l0 -12.38 l1.38 0 l0 12.38 l-1.38 0 z M12.48 20 l0 -10.22 q0 -0.54 -0.18 -0.77 t-0.62 -0.23 q-0.3 0 -0.6 0.18 t-0.46 0.58 l0 10.46 l-1.38 0 l0 -12.38 l1.16 0 q0.06 0.46 0.06 0.94 q0.28 -0.52 0.74 -0.83 t1.04 -0.31 q0.84 0 1.23 0.54 t0.39 1.74 l0 10.3 l-1.38 0 z M18.34 20 q-0.08 -0.26 -0.08 -0.74 q-0.5 0.92 -1.48 0.92 q-0.84 0 -1.31 -0.46 t-0.47 -1.5 l0 -1.82 q0 -0.9 0.25 -1.51 t0.68 -1.03 t1.01 -0.71 t1.24 -0.57 l0 -2.7 q0 -0.52 -0.19 -0.8 t-0.71 -0.28 q-0.54 0 -0.72 0.28 t-0.18 0.8 l0 2.6 l-1.22 0 l0 -2.62 q0 -1.22 0.51 -1.83 t1.65 -0.61 q2.18 0 2.18 2.44 l0 8.72 q0 0.44 0.02 0.82 t0.08 0.6 l-1.26 0 z M18.18 13.68 q-0.6 0.22 -0.97 0.48 t-0.56 0.59 t-0.25 0.76 t-0.06 0.99 l0 1.32 q0 1.02 0.94 1.02 q0.3 0 0.55 -0.18 t0.35 -0.6 l0 -4.38 z M22.299999999999997 21.44 q0.16 0.04 0.35 0.06 t0.37 0.02 q1 0 1 -1.26 l0 -12.64 l1.38 0 l0 12.64 q0 1.38 -0.59 2 t-1.79 0.62 q-0.46 0 -0.72 -0.08 l0 -1.36 z M24.019999999999996 6.039999999999999 l0 -2.5 l1.38 0 l0 2.5 l-1.38 0 z M26.82 9.9 q0 -1.2 0.56 -1.84 t1.72 -0.64 q1.14 0 1.71 0.64 t0.57 1.84 l0 7.82 q0 1.2 -0.57 1.83 t-1.71 0.63 q-1.16 0 -1.72 -0.63 t-0.56 -1.83 l0 -7.82 z M30.04 9.94 q0 -0.52 -0.19 -0.81 t-0.75 -0.29 t-0.75 0.29 t-0.19 0.81 l0 7.78 q0 0.52 0.19 0.79 t0.75 0.27 t0.75 -0.28 t0.19 -0.82 l0 -7.74 z M32.62 9.9 q0 -1.2 0.56 -1.84 t1.72 -0.64 q1.14 0 1.71 0.64 t0.57 1.84 l0 7.82 q0 1.2 -0.57 1.83 t-1.71 0.63 q-1.16 0 -1.72 -0.63 t-0.56 -1.83 l0 -7.82 z M35.84 9.94 q0 -0.52 -0.19 -0.81 t-0.75 -0.29 t-0.75 0.29 t-0.19 0.81 l0 7.78 q0 0.52 0.19 0.79 t0.75 0.27 t0.75 -0.28 t0.19 -0.82 l0 -7.74 z M41.419999999999995 16.42 q0 -0.4 -0.11 -0.69 t-0.49 -0.75 q-0.42 -0.5 -0.94 -0.95 t-0.9 -0.91 q-0.4 -0.44 -0.52 -0.88 t-0.12 -1.16 l0 -1.28 q0 -1.28 0.56 -1.83 t1.64 -0.55 q1.26 0 1.73 0.56 t0.47 1.82 l0 2.02 l-1.26 0 l0 -2.02 q0 -0.46 -0.26 -0.73 t-0.64 -0.27 q-0.9 0 -0.9 1 l0 1.46 q0 0.44 0.11 0.69 t0.45 0.61 q0.4 0.44 0.9 0.84 t0.88 0.84 q0.46 0.54 0.62 1.05 t0.16 1.31 l0 1.34 q0 1.2 -0.57 1.72 t-1.73 0.52 q-2.16 0 -2.16 -2.3 l0 -2.02 l1.24 0 l0 1.98 q0 0.46 0.27 0.73 t0.67 0.27 q0.9 0 0.9 -1 l0 -1.42 z"></path></g>
			</g>
		</svg>
	