<?xml version="1.0" encoding="utf-8"?>
<!-- Generator: Adobe Illustrator 25.4.1, SVG Export Plug-In . SVG Version: 6.00 Build 0)  -->
<svg version="1.1" id="Ebene_1" xmlns="http://www.w3.org/2000/svg" xmlns:xlink="http://www.w3.org/1999/xlink" x="0px" y="0px"
	 viewBox="0 0 595.28 841.89" style="enable-background:new 0 0 595.28 841.89;" xml:space="preserve">
<style type="text/css">
	.st0{fill:#FEFEFE;}
	.st1{fill:#020202;}
	.st2{fill:#FDFDFD;}
</style>
<g>
	<path class="st0" d="M297.56,518.84c-54.47,0-108.94-0.01-163.41,0.05c-1.84,0-2.16-0.42-2.16-2.19c0.05-63.87,0.05-127.73,0-191.6
		c0-1.71,0.23-2.21,2.13-2.21c108.94,0.06,217.87,0.06,326.81,0.01c1.74,0,2.03,0.38,2.03,2.06c-0.05,63.95-0.06,127.9,0.02,191.85
		c0,2.05-0.72,2.06-2.28,2.06C406.33,518.83,351.95,518.84,297.56,518.84z"/>
	<path d="M378.55,392.85c-1.3,0-2.13,0.01-2.96,0c-1.37-0.02-2.92,0.41-3.55-1.43c-0.66-1.92-1.04-3.91,0.14-5.7
		c1.47-2.24,3.36-3.39,6.38-3.3c9.07,0.26,18.16,0.09,27.24,0.1c1.31,0,3.09-0.38,3.47,1.17c0.47,1.92,0.96,4.13-0.41,5.96
		c-1.71,2.27-3.76,3.6-6.95,3.28c-8.28-0.83-16.07,0.65-22.83,5.92c-1.44,1.12-2.9,2.21-4.17,3.94c3.58,0.65,6.61,2.23,9.44,4.21
		c1.17,0.82,1.38-0.13,1.85-0.73c3.08-3.94,6.94-6.65,11.96-7.48c9.14-1.52,17.13,4.82,17.86,14.07c0.65,8.25-3.04,14.61-8.69,20.11
		c-1.12,1.1-2.4,2.03-3.62,3.06c2.63,0.87,3.86,5.13,2,7.41c-0.89,1.09-0.81,1.84-0.39,3.07c1.63,4.75,1.84,9.35-2.4,13.05
		c-0.78,0.68-0.83,1.14-0.14,1.99c1.53,1.88,2.57,4.08,3.4,6.34c1.83,4.96,3.78,9.89,5.3,14.94c3.65,12.14-9.82,21.1-18.87,18.5
		c-3.18-0.92-5.46-3.1-7.4-5.66c-2.33-3.06-3.93-6.54-5.72-9.92c-3.68-6.94-7.61-13.69-14.2-18.39c-0.47-0.33-0.86-0.8-1.2-1.26
		c-0.32-0.44-0.84-0.92-0.36-1.54c0.45-0.58,1.08-0.73,1.79-0.58c1.66,0.36,3.08,1.18,4.43,2.19c4.86,3.64,8.58,8.34,12.36,13
		c2.83,3.49,5.41,7.19,8.66,10.33c2.79,2.7,5.85,4.9,9.97,5.1c3.31,0.16,5.46-1.26,5.86-4.06c0.41-2.86-1.33-5.41-4.28-6.13
		c-1.04-0.26-2.13-0.36-3.21-0.43c-2.9-0.19-4.23-1.7-4.24-4.91c0-2.42,1.89-4.54,4.28-4.69c0.91-0.06,1.84-0.02,2.74,0.11
		c0.88,0.13,1.74,0.42,2.67,0.66c-2.23-5.81-8.6-9.32-14.71-8.25c-1.43,0.25-3.12,0.73-4.2-0.68c-1.12-1.46-0.77-3.11,0-4.71
		c2.54-5.34,6.7-6.79,11.83-3.81c1.7,0.99,2.5,0.56,3.38-0.85c1.99-3.19,1.08-6.28-2.5-8.33c-4.81-2.75-14.9-1.94-19.31,1.46
		c-1.77,1.36-2.17,3.06-1.7,5.08c0.19,0.83,0.52,1.72,1.49,1.8c2.22,0.19,2.33,1.78,2.39,3.4c0.07,1.76-0.33,3.47-0.72,5.17
		c-0.42,1.81-1.45,1.76-2.76,0.95c-0.88-0.55-1.56-1.35-1.87-2.28c-2.16-6.55-3.04-13.11,0.19-19.63c1.52-3.07,4.17-5.14,6.4-7.6
		c0.6-0.67,1.37-0.48,2.09-0.49c4.25-0.01,8.5-0.04,12.74,0.02c1.16,0.02,2.02-0.3,2.87-1.11c3.7-3.5,7.54-6.88,8.4-12.31
		c0.92-5.84-1.61-10.19-6.02-13.62c-4.03-3.14-8.41-3.75-13.04-1.27c-1.48,0.79-2.37,1.37-0.87,3.27c2.05,2.6,3.52,5.63,4.3,8.91
		c0.16,0.67,0.33,1.46-0.3,1.84c-0.65,0.39-1.15-0.29-1.67-0.67c-3.89-2.8-7.42-6.22-12.35-7.27c-2.62-0.56-5.29-0.83-7.94-0.71
		c-2.23,0.1-3.14-0.99-3.65-2.9c-0.9-3.38,0.17-5.88,3.22-7.39c0.35-0.18,0.85-0.36,0.97-0.67
		C372.87,398.77,375.78,396.13,378.55,392.85z"/>
	<path d="M251.18,393.13c-3.12-1.11-4.19-2.96-3.58-6.21c0.35-1.83,3.62-4.39,5.64-4.4c0.17,0,0.34-0.03,0.5,0
		c1.71,0.4,4.29-1.18,4.97,1.43c0.77,2.93,0.82,6.66-1.61,8.43c-6.5,4.72-5.16,11.2-4.23,17.23c0.85,5.52,4.37,9.98,8.98,13.35
		c3.1,2.26,6.55,2.74,10.19,1.87c2.83-0.67,4.27-3.85,3.3-7.07c-0.96-3.16-3.29-4.91-6.35-5.76c-1.52-0.42-3.07-0.74-4.62-1.01
		c-2.13-0.38-2.36-1.45-1.29-3.14c2.81-4.42,5.6-8.85,8.38-13.29c0.29-0.47,0.8-0.88,0.65-1.7c-0.88,0-1.79,0.11-2.67-0.02
		c-1.79-0.28-3.01-1.11-3.07-3.2c-0.14-4.85,2-7.12,6.85-7.12c4.83,0,9.66-0.01,14.49,0c3.76,0.01,5.96,3.58,3.79,6.67
		c-1.24,1.76-2.56,4.06-5.91,3.66c8.47,12.99,12.94,27.47,19.85,41.51c0-4.24,0.17-7.84-0.03-11.43c-0.49-8.63-0.96-17.28-3.4-25.66
		c-0.44-1.51-0.95-2.96-2.04-4.21c-1.09-1.26-0.41-6.3,0.51-7.68c2.26-3.4,5.61-3.02,8.91-2.82c1.28,0.08,2.28,1.23,2.39,2.24
		c0.25,2.28,0.81,4.83-0.19,6.9c-2.04,4.21-2.37,8.67-2.5,13.13c-0.27,9.74-0.21,19.48-0.3,29.22c-0.01,1.03-0.16,2.07,1.45,1.85
		c1.46-0.2,3.08-0.1,3.47,1.57c0.42,1.79,0.96,3.93-0.41,5.46c-1.1,1.22-0.75,2.05-0.32,3.29c1.62,4.7,1.71,9.2-2.46,12.78
		c-1.1,0.95-0.62,1.53,0.01,2.38c2.61,3.55,5.1,7.18,6.61,11.38c0.23,0.63,0.52,1.24,0,2.1c-2.91-1.47-5.27-3.71-7.7-5.8
		c-2.62-2.25-5.59-3.22-8.95-3.14c-1.23,0.03-2.44,0.46-3.67,0.61c-3.2,0.39-4.54-1.09-3.86-4.22c1.17-5.38,6.42-7.97,11.35-5.69
		c1.23,0.57,2.44,2.41,4,0.27c1.44-1.97,1.81-4.83,0.58-6.51c-0.8-1.09-1.83-1.99-3.08-2.47c-6.61-2.53-12.99-2.15-19.04,1.7
		c-1.89,1.2-2.19,3.03-1.67,5.05c0.19,0.73,0.5,1.59,1.32,1.67c2.68,0.25,2.6,2.19,2.5,4.03c-0.09,1.56-0.44,3.12-0.72,4.67
		c-0.3,1.67-1.25,1.7-2.52,0.97c-0.99-0.57-1.73-1.43-2.06-2.43c-2.23-6.64-3.03-13.27,0.35-19.84c1.53-2.96,4.13-4.96,6.31-7.34
		c0.61-0.67,1.38-0.46,2.09-0.47c3-0.02,5.99-0.01,8.95-0.01c0.51-0.76-0.18-1.14-0.45-1.54c-7.83-11.96-15.72-23.89-23.5-35.88
		c-1.05-1.61-1.84-1.44-2.99-0.39c-1.67,1.52-3.07,3.27-4.33,5.11c0.1,0.2,0.15,0.44,0.24,0.46c8.97,1.95,9.7,8.2,9.09,14.7
		c-0.46,4.83-2.1,9.27-6.12,12.4c-6,4.67-14.95,3.04-20.09-3.66c-3.11-4.06-4.95-8.68-5.21-13.78
		C247.63,406.36,247.6,399.45,251.18,393.13z"/>
	<path d="M186.82,393.03c-1.58-0.39-2.88,0.15-4.05-0.41c-1.86-0.88-2.94-5.41-1.47-7.01c1.59-1.72,3.17-3.36,6.08-3.18
		c4.89,0.31,9.82,0.08,14.74,0.09c3.81,0,5.99,3.47,3.85,6.64c-1.2,1.77-2.51,4.11-5.93,3.64c8.5,13.08,13,27.57,19.68,41.18
		c0.63-0.45,0.38-1.06,0.37-1.55c-0.15-11.74-0.52-23.46-3.54-34.91c-0.42-1.6-1.18-3.03-2.04-4.48c-1.21-2.05-1.14-4.81-0.18-6.65
		c0.98-1.85,2.52-4.21,5.54-3.89c2.37,0.25,5.47-0.88,6.35,2.33c0.59,2.14,0.82,4.78-0.17,6.87c-2.04,4.29-2.29,8.83-2.5,13.38
		c-0.55,11.57-0.27,23.14-0.32,34.72c0,0.67,0,1.33-0.02,2c-0.02,0.6-0.13,1.25-0.78,1.43c-0.6,0.17-1.16-0.17-1.54-0.64
		c-0.47-0.58-0.89-1.2-1.3-1.83c-9.18-13.96-18.41-27.89-27.47-41.93c-1.38-2.14-2.29-1.78-3.67-0.39
		c-0.35,0.35-0.73,0.69-1.04,1.08c-0.93,1.17-2.55,2.34-2.58,3.54c-0.04,1.54,2.2,1,3.36,1.63c2.8,1.52,4.69,3.62,5.38,6.78
		c0.99,4.54,0.47,8.95-1.3,13.19c-4.78,11.49-18.05,11.04-24.79,2.15c-3.15-4.15-4.69-8.91-5.12-14.09
		c-0.59-7.16,0.6-14.61,3.34-19.59c-1.39-0.32-2.54-1.08-3.27-2.22c-0.8-1.25-0.43-2.77-0.28-4.12c0.21-1.91,3.7-4.23,5.95-4.26
		c5.53-0.08,5.46-0.54,5.16,5.8c-0.09,1.83-0.46,4.12-3.11,4.74c-1.03,0.24-1.51,1.49-1.89,2.52c-4.02,11.04-0.47,21.42,8.83,27.88
		c2.81,1.96,6.06,2.16,9.33,1.4c2.77-0.64,4.3-3.65,3.48-6.76c-0.9-3.4-3.32-5.26-6.59-6.13c-1.52-0.4-3.07-0.71-4.62-1.02
		c-2.32-0.46-2-1.72-1.05-3.23c2.84-4.5,5.67-9,8.5-13.5C186.34,393.88,186.53,393.53,186.82,393.03z"/>
	<path d="M205.45,373.87c2.83-4.28,5.84-8.11,9.64-11.29c5.4-4.52,11.84-6.6,18.53-8.1c5.34-1.2,10.71-2.28,15.45-5.8
		c0.4,4.31-1.28,7.33-4.16,9.87c-3.78,3.32-8.31,5.11-13.1,6.37c-4.97,1.31-10,2.44-14.78,4.41c-3.26,1.35-6.25,3.11-8.83,5.51
		c-0.83,0.77-1.83,1.47-1.7,2.87c0.09,0.93-0.74,1.32-1.37,1.57c-0.86,0.34-1.07-0.63-1.38-1.11c-3.81-5.84-8.9-9.84-15.9-11.02
		c-1.88-0.32-3.81-0.35-5.71-0.48c-1.85-0.12-3.52-0.54-3.99-2.66c-0.46-2.12,0.04-4.04,1.86-5.32c3.68-2.57,7.61-2.63,11.56-0.68
		c4.7,2.32,8.05,6.11,10.83,10.43C203.47,370.1,204.35,371.9,205.45,373.87z"/>
	<path d="M433.73,446.83c0.29-14.34-0.28-28.62-3.3-42.69c-1.08-5.03-2.19-10.07-4.72-14.64c-0.24-0.43-0.63-0.92-0.21-1.36
		c1.79-1.85,3.36-4.17,5.54-5.3c2.02-1.05,4.83-0.71,7.08-0.1c1.39,0.38,2.69,1.75,2.88,3.9c0.39,4.23-1.5,7.94-2.13,11.92
		c-1.17,7.33-1.89,14.68-1.9,22.1c-0.02,15.9,0,31.79-0.02,47.69c0,0.85,0.38,1.88-0.73,2.43c-1.4,0.7-2.46-0.21-2.47-2.22
		c-0.02-6.57-0.01-13.15-0.01-19.72C433.73,448.16,433.73,447.5,433.73,446.83z"/>
	<path d="M386.27,361.4c-8.93,0.05-13.81-8.6-9.64-17.09c2.81-5.73,10.06-8.99,16.2-7.28c4.19,1.16,7.05,5.64,6.98,10.94
		C399.71,355.42,393.73,361.36,386.27,361.4z"/>
	<path d="M387.27,376.47c-4.6,0.07-8.3-1.55-11.51-4.44c-3.4-3.06-5.66-6.91-7.57-10.99c-0.35-0.75-0.94-1.83-0.04-2.51
		c0.75-0.56,1.62,0.1,2.28,0.56c1.01,0.71,2.02,1.48,2.87,2.38c7.16,7.54,18.88,7.02,26.02,1.95c0.68-0.48,1.34-0.97,2.03-1.44
		c1.17-0.79,2.47-2.58,3.71-1.48c0.98,0.87-0.34,2.59-1.07,3.74c-2.05,3.23-4.29,6.33-7.32,8.74
		C393.85,375.22,390.7,376.55,387.27,376.47z"/>
	<path d="M329.76,403.38c-2.9-0.11-5.84-2.12-7.82-5.63c-1.83-3.24-0.95-6.22,0.96-9.09c3.3-4.96,8.56-7.25,13.44-5.59
		c3.72,1.26,6.18,3.9,6.79,7.87c0.64,4.21-1.3,7.42-4.5,9.89C336.41,402.54,333.79,403.36,329.76,403.38z"/>
	<path d="M332.45,414.31c4.95,0.1,7.96,2.08,9.82,5.66c1.84,3.52,1.15,6.95-1.09,10.07c-4.76,6.64-14.22,6.87-18.65,0.5
		c-1.75-2.52-2.17-5.19-0.77-7.98C324.13,417.79,327.67,414.61,332.45,414.31z"/>
	<path d="M209.04,338.92c3.22,0.09,6.4,2.07,8.21,5.93c1.78,3.79,0.84,7.3-1.77,10.39c-5.14,6.08-13.98,5.93-18.19-0.25
		c-1.67-2.46-1.92-5.04-0.76-7.78C198.59,342.33,203.28,338.92,209.04,338.92z"/>
	<path class="st1" d="M238.76,382.51c0.66,0,1.33,0,1.99,0c2.73,0,3.57,1.2,2.41,3.81c-0.87,1.96-1.97,3.82-3.08,5.65
		c-0.87,1.42-3.35,1.28-4.27-0.2c-0.91-1.47-1.75-2.99-2.59-4.51c-1.16-2.11,0.39-4.7,2.81-4.74
		C236.94,382.5,237.85,382.51,238.76,382.51z"/>
	<path class="st0" d="M389.39,354.98c-5.91-0.01-9.94-4.52-8.55-9.54c0.29-1.04,0.78-1.74,1.81-2.17c5.08-2.1,11.47,2.08,11.42,7.52
		C394.05,354.09,393.05,354.98,389.39,354.98z"/>
	<path class="st2" d="M337.53,395.12c-0.02,2.12-1.19,3.17-3.32,2.96c-3.32-0.32-6.15-2.53-7.01-5.47
		c-0.45-1.54-0.28-2.94,0.91-4.13c1.2-1.2,2.59-0.95,3.95-0.5C334.76,388.89,337.55,392.6,337.53,395.12z"/>
	<path class="st2" d="M330.22,419.42c3.25-0.05,7.51,4.4,7.29,7.66c-0.11,1.72-0.95,2.79-2.8,2.83c-3.25,0.06-6.87-2.7-7.61-5.82
		C326.53,421.69,328.03,419.45,330.22,419.42z"/>
	<path class="st2" d="M205.08,343.99c3.19-0.03,7.63,4.55,7.34,7.67c-0.13,1.41-0.76,2.55-2.36,2.8c-3.65,0.56-8.09-3.11-8.19-6.78
		C201.81,345.63,203.22,344.01,205.08,343.99z"/>
</g>
</svg>
